<svg width="100" height="102" viewBox="0 0 100 102" fill="none" xmlns="http://www.w3.org/2000/svg">
<g filter="url(#filter0_d_203_328)">
<circle r="39" transform="matrix(-4.37114e-08 -1 -1 4.37114e-08 50 40.2686)" stroke="white" stroke-width="2" shape-rendering="crispEdges"/>
</g>
<path d="M51 20C51 19.4477 50.5523 19 50 19C49.4477 19 49 19.4477 49 20L51 20ZM49.2929 59.7071C49.6834 60.0976 50.3166 60.0976 50.7071 59.7071L57.0711 53.3431C57.4616 52.9526 57.4616 52.3195 57.0711 51.9289C56.6805 51.5384 56.0474 51.5384 55.6569 51.9289L50 57.5858L44.3431 51.9289C43.9526 51.5384 43.3195 51.5384 42.9289 51.9289C42.5384 52.3195 42.5384 52.9526 42.9289 53.3431L49.2929 59.7071ZM49 20L49 59L51 59L51 20L49 20Z" fill="white"/>
<defs>
<filter id="filter0_d_203_328" x="0" y="0.268555" width="100" height="101" filterUnits="userSpaceOnUse" color-interpolation-filters="sRGB">
<feFlood flood-opacity="0" result="BackgroundImageFix"/>
<feColorMatrix in="SourceAlpha" type="matrix" values="0 0 0 0 0 0 0 0 0 0 0 0 0 0 0 0 0 0 127 0" result="hardAlpha"/>
<feOffset dy="11"/>
<feGaussianBlur stdDeviation="5"/>
<feComposite in2="hardAlpha" operator="out"/>
<feColorMatrix type="matrix" values="0 0 0 0 0 0 0 0 0 0 0 0 0 0 0 0 0 0 0.07 0"/>
<feBlend mode="normal" in2="BackgroundImageFix" result="effect1_dropShadow_203_328"/>
<feBlend mode="normal" in="SourceGraphic" in2="effect1_dropShadow_203_328" result="shape"/>
</filter>
</defs>
</svg>
