<svg width="20" height="20" viewBox="0 0 20 20" fill="none" xmlns="http://www.w3.org/2000/svg">
<path fill-rule="evenodd" clip-rule="evenodd" d="M11.6284 2.51675C11.767 2.55356 11.8831 2.64812 11.9472 2.7764C12.439 3.75996 12.8159 4.37673 13.2044 4.88612C13.5952 5.39841 14.0073 5.81517 14.5956 6.40345C15.2004 7.00649 15.6795 7.72261 16.0064 8.51165C16.3333 9.30047 16.501 10.1461 16.5 11C16.5011 11.8537 16.3335 12.6993 16.0069 13.4881C15.6802 14.277 15.2009 14.9935 14.5966 15.5966C13.3775 16.8156 11.7241 17.5005 10 17.5005C8.27598 17.5005 6.62255 16.8156 5.40347 15.5966C4.18438 14.3775 3.49951 12.724 3.49951 11C3.49951 9.27596 4.18438 7.62253 5.40347 6.40345C5.54647 6.26045 5.76152 6.21767 5.94836 6.29506C6.1352 6.37245 6.25702 6.55477 6.25702 6.757C6.25702 7.87773 6.32239 8.83479 6.70405 9.62779C7.01033 10.2642 7.54342 10.8382 8.52882 11.2817C8.60747 10.1597 8.84411 8.53921 9.2006 7.01139C9.42265 6.05973 9.69561 5.12449 10.0148 4.35527C10.1744 3.97059 10.3498 3.617 10.5424 3.31985C10.7321 3.0271 10.956 2.76179 11.2227 2.58398C11.342 2.50442 11.4897 2.47994 11.6284 2.51675Z" fill="white"/>
</svg>
