<svg width="24" height="24" viewBox="0 0 24 24" fill="none" xmlns="http://www.w3.org/2000/svg">
<path d="M3.25 0.75C2.58696 0.75 1.95107 1.01339 1.48223 1.48223C1.01339 1.95107 0.75 2.58696 0.75 3.25V4.5C0.75 14.855 9.145 23.25 19.5 23.25H20.75C21.413 23.25 22.0489 22.9866 22.5178 22.5178C22.9866 22.0489 23.25 21.413 23.25 20.75V16.65C23.2498 16.3878 23.1671 16.1322 23.0137 15.9196C22.8602 15.7069 22.6438 15.5479 22.395 15.465L16.7787 13.5925C16.4933 13.4976 16.1833 13.5088 15.9054 13.6241C15.6276 13.7394 15.4007 13.9509 15.2662 14.22L13.8538 17.0413C10.7929 15.658 8.3414 13.2061 6.95875 10.145L9.78 8.735C10.0491 8.60057 10.2606 8.37363 10.3759 8.09581C10.4912 7.81799 10.5024 7.50792 10.4075 7.2225L8.535 1.60375C8.45185 1.35498 8.29255 1.13866 8.07965 0.98544C7.86676 0.832217 7.61105 0.74985 7.34875 0.75H3.25Z" stroke="white" stroke-width="1.5" stroke-linecap="round" stroke-linejoin="round"/>
</svg>
