<svg width="26" height="26" viewBox="0 0 26 26" fill="none" xmlns="http://www.w3.org/2000/svg">
<path d="M24.25 24.25L16.75 16.75M19.25 10.5C19.25 11.6491 19.0237 12.7869 18.5839 13.8485C18.1442 14.9101 17.4997 15.8747 16.6872 16.6872C15.8747 17.4997 14.9101 18.1442 13.8485 18.5839C12.7869 19.0237 11.6491 19.25 10.5 19.25C9.35093 19.25 8.21312 19.0237 7.15152 18.5839C6.08992 18.1442 5.12533 17.4997 4.31282 16.6872C3.5003 15.8747 2.85578 14.9101 2.41605 13.8485C1.97633 12.7869 1.75 11.6491 1.75 10.5C1.75 8.17936 2.67187 5.95376 4.31282 4.31282C5.95376 2.67187 8.17936 1.75 10.5 1.75C12.8206 1.75 15.0462 2.67187 16.6872 4.31282C18.3281 5.95376 19.25 8.17936 19.25 10.5Z" stroke="white" stroke-width="2" stroke-linecap="round" stroke-linejoin="round"/>
</svg>
