<svg width="120" height="54" viewBox="0 0 120 54" fill="none" xmlns="http://www.w3.org/2000/svg">
<path d="M77.2164 17.5273C77.2164 22.0291 79.6349 24.3723 83.467 24.3723C87.2985 24.3723 89.6798 22.0291 89.6798 17.5273V7.07316C89.6798 2.57139 87.2985 0.22773 83.467 0.22773C79.6349 0.22773 77.2164 2.57139 77.2164 7.07316V17.5273ZM63.1167 46.5457C63.1167 51.0475 65.5348 53.3912 69.3668 53.3912C73.1988 53.3912 75.5797 51.0475 75.5797 46.5457V36.0915C75.5797 31.5903 73.1988 29.2461 69.3668 29.2461C65.5348 29.2461 63.1167 31.5903 63.1167 36.0915V46.5457ZM78.3326 46.5457C78.3326 51.0475 80.7507 53.3912 84.5827 53.3912C88.4147 53.3912 90.7956 51.0475 90.7956 46.5457V36.0915C90.7956 31.5903 88.4147 29.2461 84.5827 29.2461C80.7507 29.2461 78.3326 31.5903 78.3326 36.0915V46.5457ZM48.5703 53.019H53.7044C57.9085 53.019 60.2894 50.8614 60.2894 46.4713V36.1665C60.2894 31.7763 57.9085 29.6182 53.8904 29.6182H48.5703V53.019ZM106.57 53.019L105.193 45.9876C104.933 44.723 104.338 43.5323 102.961 43.1974C104.486 42.416 105.528 40.8166 105.528 37.952V35.4218C105.528 31.0321 103.147 29.6182 99.6875 29.6182H93.809V53.019H97.6782V44.909H99.5387C100.506 44.909 100.952 45.4294 101.175 46.5085L102.403 53.019H106.57ZM75.5053 24.0007L74.1285 16.9692C73.8686 15.7041 73.2732 14.5139 71.8965 14.179C73.4221 13.3977 74.4639 11.7982 74.4639 8.9331V6.40339C74.4639 2.01376 72.0826 0.599815 68.6226 0.599815H62.7446V24.0007H66.6139V15.8901H68.4738C69.4412 15.8901 69.8877 16.4111 70.111 17.4901L71.3384 24.0007H75.5053ZM48.4216 24.0007H52.2905V16.1506H54.2997C57.7592 16.1506 60.1405 14.7372 60.1405 10.347V6.40339C60.1405 2.01376 57.7592 0.599815 54.2997 0.599815H48.4216V24.0007ZM112.931 43.0486C114.42 44.016 115.498 45.1323 115.498 47.2899C115.498 48.9643 115.089 50.1545 113.713 50.1545C112.336 50.1545 111.89 49.1131 111.89 47.0294C111.89 46.1736 111.964 45.7271 112.076 45.2062H108.281C108.095 45.876 107.984 46.5457 107.984 47.4015C107.984 51.3824 109.807 53.3912 113.638 53.3912C117.135 53.3912 119.517 51.0475 119.517 47.1038C119.517 43.0858 117.396 41.1142 114.717 39.4026C113.229 38.4357 112.15 37.5055 112.15 35.3479C112.15 33.6735 112.746 32.4833 113.899 32.4833C115.052 32.4833 115.61 33.5246 115.61 35.8316C115.61 36.4636 115.573 36.9101 115.498 37.4311H119.294C119.442 36.9101 119.517 36.0171 119.517 35.5711C119.517 31.0693 117.842 29.2461 114.01 29.2461C110.513 29.2461 108.132 31.5903 108.132 35.5334C108.132 39.5515 110.253 41.3375 112.931 43.0486ZM92.4328 24.0007H96.4508V14.6255H101.361V10.8307H96.4508V4.39462H101.361V0.599815H92.4328V24.0007ZM120 24.0007V20.2059H115.238V0.599815H111.22V24.0007H120ZM103.817 24.0007H107.835V0.599815H103.817V24.0007ZM84.5827 32.8182C85.7362 32.8182 86.5915 33.5246 86.5915 35.8316V46.8062C86.5915 49.1131 85.7734 49.8196 84.5827 49.8196C83.4292 49.8196 82.5734 49.1131 82.5734 46.8062V35.8316C82.5734 33.5246 83.4292 32.8182 84.5827 32.8182ZM69.3668 32.8182C70.5203 32.8182 71.3756 33.5246 71.3756 35.8316V46.8062C71.3756 49.1131 70.557 49.8196 69.3668 49.8196C68.2133 49.8196 67.3575 49.1131 67.3575 46.8062V35.8316C67.3575 33.5246 68.2133 32.8182 69.3668 32.8182ZM83.467 3.79928C84.6199 3.79928 85.4757 4.50625 85.4757 6.81269V17.7878C85.4757 20.0942 84.6571 20.8012 83.467 20.8012C82.3135 20.8012 81.4577 20.0942 81.4577 17.7878V6.81269C81.4577 4.50625 82.3135 3.79928 83.467 3.79928ZM56.2713 45.7271C56.2713 48.1829 55.862 49.6708 53.63 49.6708H52.5881V32.9665H53.7044C55.862 32.9665 56.2713 34.4549 56.2713 36.9101V45.7271ZM56.1225 9.60285C56.1225 12.0586 55.4527 12.8023 53.5928 12.8023H52.2905V3.94812H53.5928C55.4527 3.94812 56.1225 4.69229 56.1225 7.14758V9.60285ZM67.9157 3.94812C69.7756 3.94812 70.4454 4.69229 70.4454 7.14758V8.89639C70.4454 11.6121 69.7756 12.3558 67.804 12.3558H66.6139V3.94812H67.9157ZM98.9805 32.9665C100.84 32.9665 101.51 33.7107 101.51 36.1665V37.9148C101.51 40.6305 100.84 41.3747 98.8689 41.3747H97.6782V32.9665H98.9805Z" fill="white"/>
<path d="M11.7106 12.6129L22.8093 0.599937H0V53.0192H22.8093L11.7106 41.0067V12.6129Z" fill="#9499DA"/>
<path d="M22.8093 0.599937V53.0192L33.8869 41.0067V12.6129L22.8093 0.599937Z" fill="#9499DA"/>
</svg>
