<svg width="86" height="39" viewBox="0 0 86 39" fill="none" xmlns="http://www.w3.org/2000/svg">
<path d="M55.3384 12.3979C55.3384 15.6241 57.0717 17.3034 59.818 17.3034C62.5639 17.3034 64.2705 15.6241 64.2705 12.3979V4.90572C64.2705 1.67946 62.5639 -0.000164032 59.818 -0.000164032C57.0717 -0.000164032 55.3384 1.67946 55.3384 4.90572V12.3979ZM45.2337 33.1944C45.2337 36.4206 46.9666 38.1003 49.7129 38.1003C52.4592 38.1003 54.1654 36.4206 54.1654 33.1944V25.7022C54.1654 22.4763 52.4592 20.7963 49.7129 20.7963C46.9666 20.7963 45.2337 22.4763 45.2337 25.7022V33.1944ZM56.1384 33.1944C56.1384 36.4206 57.8713 38.1003 60.6176 38.1003C63.3639 38.1003 65.0702 36.4206 65.0702 33.1944V25.7022C65.0702 22.4763 63.3639 20.7963 60.6176 20.7963C57.8713 20.7963 56.1384 22.4763 56.1384 25.7022V33.1944ZM34.8087 37.8336H38.4882C41.5011 37.8336 43.2074 36.2873 43.2074 33.1411V25.7559C43.2074 22.6097 41.5011 21.063 38.6215 21.063H34.8087V37.8336ZM76.3749 37.8336L75.3886 32.7944C75.2019 31.8881 74.7753 31.0348 73.789 30.7948C74.8819 30.2348 75.6286 29.0885 75.6286 27.0355V25.2222C75.6286 22.0763 73.922 21.063 71.4427 21.063H67.2298V37.8336H70.0027V32.0214H71.336C72.0294 32.0214 72.349 32.3944 72.509 33.1677L73.389 37.8336H76.3749ZM54.1121 17.0371L53.1255 11.9979C52.9392 11.0912 52.5125 10.2383 51.5258 9.99827C52.6192 9.43828 53.3658 8.29199 53.3658 6.23868V4.42573C53.3658 1.27982 51.6592 0.266495 49.1796 0.266495H44.967V17.0371H47.7399V11.2246H49.0729C49.7662 11.2246 50.0862 11.5979 50.2462 12.3712L51.1258 17.0371H54.1121ZM34.7021 17.0371H37.4748V11.4112H38.9148C41.3941 11.4112 43.1007 10.3983 43.1007 7.252V4.42573C43.1007 1.27982 41.3941 0.266495 38.9148 0.266495H34.7021V17.0371ZM80.9341 30.6881C82.0008 31.3814 82.7737 32.1814 82.7737 33.7277C82.7737 34.9277 82.4808 35.7807 81.4941 35.7807C80.5078 35.7807 80.1878 35.0344 80.1878 33.541C80.1878 32.9277 80.2412 32.6077 80.3212 32.2344H77.6016C77.4682 32.7144 77.3882 33.1944 77.3882 33.8077C77.3882 36.6606 78.6949 38.1003 81.4408 38.1003C83.9471 38.1003 85.6537 36.4207 85.6537 33.5944C85.6537 30.7148 84.1337 29.3018 82.2141 28.0752C81.1475 27.3822 80.3745 26.7155 80.3745 25.1693C80.3745 23.9693 80.8012 23.1163 81.6274 23.1163C82.4541 23.1163 82.8541 23.8626 82.8541 25.5159C82.8541 25.9689 82.8274 26.2889 82.7737 26.6622H85.4937C85.6 26.2889 85.6537 25.6489 85.6537 25.3293C85.6537 22.103 84.4537 20.7963 81.7075 20.7963C79.2012 20.7963 77.4949 22.4763 77.4949 25.3022C77.4949 28.1818 79.0145 29.4618 80.9341 30.6881ZM66.2435 17.0371H69.1231V10.3183H72.6423V7.59866H69.1231V2.98611H72.6423V0.266495H66.2435V17.0371ZM86 17.0371V14.3175H82.5874V0.266495H79.7078V17.0371H86ZM74.4019 17.0371H77.2816V0.266495H74.4019V17.0371ZM60.6176 23.3563C61.4443 23.3563 62.0572 23.8626 62.0572 25.5159V33.381C62.0572 35.0344 61.4709 35.5407 60.6176 35.5407C59.791 35.5407 59.1776 35.0344 59.1776 33.381V25.5159C59.1776 23.8626 59.791 23.3563 60.6176 23.3563ZM49.7129 23.3563C50.5395 23.3563 51.1525 23.8626 51.1525 25.5159V33.381C51.1525 35.0344 50.5658 35.5407 49.7129 35.5407C48.8862 35.5407 48.2729 35.0344 48.2729 33.381V25.5159C48.2729 23.8626 48.8862 23.3563 49.7129 23.3563ZM59.818 2.55945C60.6443 2.55945 61.2576 3.0661 61.2576 4.71906V12.5845C61.2576 14.2375 60.671 14.7442 59.818 14.7442C58.9913 14.7442 58.378 14.2375 58.378 12.5845V4.71906C58.378 3.0661 58.9913 2.55945 59.818 2.55945ZM40.3278 32.6077C40.3278 34.3677 40.0344 35.434 38.4348 35.434H37.6882V23.4626H38.4882C40.0344 23.4626 40.3278 24.5293 40.3278 26.2889V32.6077ZM40.2211 6.71867C40.2211 8.47865 39.7411 9.01162 38.4082 9.01162H37.4748V2.66611H38.4082C39.7411 2.66611 40.2211 3.19944 40.2211 4.95906V6.71867ZM48.6729 2.66611C50.0059 2.66611 50.4858 3.19944 50.4858 4.95906V6.21238C50.4858 8.15866 50.0059 8.69162 48.5929 8.69162H47.7399V2.66611H48.6729ZM70.9361 23.4626C72.269 23.4626 72.749 23.9959 72.749 25.7559V27.0089C72.749 28.9552 72.269 29.4885 70.8561 29.4885H70.0027V23.4626H70.9361Z" fill="white"/>
<path d="M8.39262 8.8759L16.3466 0.266632H0V37.8337H16.3466L8.39262 29.2248V8.8759Z" fill="#9499DA"/>
<path d="M16.3467 0.266632V37.8337L24.2856 29.2248V8.8759L16.3467 0.266632Z" fill="#9499DA"/>
</svg>
